<?xml version="1.0" standalone="no"?>
<!DOCTYPE svg PUBLIC "-//W3C//DTD SVG 20010904//EN"
 "http://www.w3.org/TR/2001/REC-SVG-20010904/DTD/svg10.dtd">
<svg version="1.0" xmlns="http://www.w3.org/2000/svg"
 width="512.000000pt" height="512.000000pt" viewBox="0 0 512.000000 512.000000"
 preserveAspectRatio="xMidYMid meet">

<g transform="translate(0.000000,512.000000) scale(0.100000,-0.100000)"
fill="#000000" stroke="none">
<path d="M2380 4650 c-203 -84 -1678 -746 -1672 -751 4 -5 156 -74 337 -155
302 -134 332 -145 359 -135 103 38 1734 767 1728 772 -4 3 -142 66 -307 139
-258 115 -308 134 -360 137 -33 1 -71 -2 -85 -7z"/>
<path d="M2565 3890 c-456 -203 -850 -379 -874 -390 l-45 -22 404 -179 403
-179 871 386 c479 212 874 389 878 393 7 6 -756 350 -792 357 -8 1 -388 -163
-845 -366z"/>
<path d="M532 2658 l3 -1073 22 -42 c13 -23 37 -53 55 -67 26 -19 1715 -776
1733 -776 3 0 5 502 5 1115 l0 1114 -27 15 c-62 31 -1772 786 -1782 786 -8 0
-11 -290 -9 -1072z"/>
<path d="M3453 3331 l-893 -396 1 -670 c1 -424 5 -648 10 -610 39 269 158 497
358 688 297 283 709 388 1111 282 54 -14 146 -50 213 -83 l117 -59 0 624 c0
492 -3 623 -12 622 -7 -1 -415 -180 -905 -398z"/>
<path d="M3550 2436 c-675 -142 -992 -902 -615 -1471 251 -379 736 -531 1157
-361 228 92 423 282 519 506 63 148 74 204 73 390 0 151 -3 173 -28 255 -103
338 -350 579 -686 670 -87 23 -330 29 -420 11z m42 -653 l138 -137 123 120
c141 140 160 154 205 154 48 0 102 -54 102 -102 0 -45 -14 -64 -154 -205
l-120 -123 137 -138 c119 -121 137 -143 137 -171 0 -68 -42 -110 -109 -111
-44 0 -47 2 -180 134 l-136 135 -136 -135 c-136 -134 -137 -134 -184 -134 -66
0 -105 39 -105 105 0 47 0 48 134 184 l135 136 -135 136 c-132 133 -134 136
-134 180 1 67 42 108 109 109 31 0 49 -14 173 -137z"/>
<path d="M2561 1046 c-1 -275 2 -347 12 -343 92 37 207 92 207 99 0 5 -13 28
-29 51 -78 115 -152 307 -175 455 -13 83 -14 70 -15 -262z"/>
</g>
</svg>
